<!--?xml version="1.0" encoding="utf-8"?-->
<!-- Generator: Adobe Illustrator 18.1.1, SVG Export Plug-In . SVG Version: 6.00 Build 0)  -->

<svg version="1.1" id="_x32_" xmlns="http://www.w3.org/2000/svg" xmlns:xlink="http://www.w3.org/1999/xlink" x="0px" y="0px" viewBox="0 0 512 512" style="width: 256px; height: 256px; opacity: 1;" xml:space="preserve">
<style type="text/css">
	.st0{fill:#4B4B4B;}
</style>
<g>
	<path class="st0" d="M317.158,256.016v35.272l-0.676,0.4c-4.775,83.224-36.173,158.797-85.563,219.03
		c8.258,0.801,16.608,1.265,25.082,1.265c70.724,0,134.64-28.627,181.008-74.963c2.094-2.097,3.943-4.403,5.961-6.565
		C420.974,362.457,378.316,300.991,317.158,256.016z" style="fill: rgb(252, 205, 96);"></path>
	<path class="st0" d="M225.591,309.036l-30.749-17.748v-0.737C125.182,244.92,75.316,180.068,47.909,107.266
		C17.857,149.191,0,200.434,0,255.984c0,26.098,3.943,51.235,11.2,74.964c24.048,5.107,48.65,7.885,73.403,7.885
		C132.007,338.833,179.96,329.122,225.591,309.036z" style="fill: rgb(252, 205, 96);"></path>
	<path class="st0" d="M194.842,255.888v-26.987v-8.198l0.676-0.4c4.655-83.217,36.157-158.765,85.563-219.022
		c-8.258-0.8-16.608-1.265-25.081-1.265c-70.74,0-134.641,28.619-181.025,74.956c-2.077,2.097-3.927,4.411-5.944,6.565
		C91.119,149.535,133.684,211.033,194.842,255.888z" style="fill: rgb(252, 205, 96);"></path>
	<path class="st0" d="M256,185.4l0.568,0.304c54.733-27.571,113.258-40.916,170.83-40.916c20.654,0,41.1,1.761,61.342,5.028
		c-12.789-27.947-30.225-53.333-51.716-74.844c-33.383-33.335-75.932-57.304-123.472-68.215
		c-47.846,53.148-79.859,120.93-88.117,196.294L256,185.4z" style="fill: rgb(252, 205, 96);"></path>
	<path class="st0" d="M262.7,322.75c-0.016,0-0.016,0-0.032,0l-6.668,3.85l-0.541-0.312
		C200.726,353.9,142.19,367.236,84.603,367.236c-20.655,0-41.085-1.754-61.326-5.02c12.773,27.939,30.224,53.333,51.699,74.804
		c33.383,33.367,75.932,57.303,123.485,68.247c47.833-53.148,79.723-120.931,88.073-196.286L262.7,322.75z" style="fill: rgb(252, 205, 96);"></path>
	<path class="st0" d="M500.816,181.085c-24.064-5.116-48.665-7.886-73.418-7.886c-47.389,0-95.329,9.703-140.957,29.757
		l30.717,17.748v0.776c69.66,45.744,119.526,110.508,146.917,183.254C494.143,362.801,512,311.566,512,255.984
		C512,229.918,508.057,204.781,500.816,181.085z" style="fill: rgb(252, 205, 96);"></path>
</g>
</svg>
